<?xml version="1.0" encoding="UTF-8" standalone="no"?>
<svg
   xmlns:dc="http://purl.org/dc/elements/1.1/"
   xmlns:cc="http://creativecommons.org/ns#"
   xmlns:rdf="http://www.w3.org/1999/02/22-rdf-syntax-ns#"
   xmlns:svg="http://www.w3.org/2000/svg"
   xmlns="http://www.w3.org/2000/svg"
   id="svg8"
   version="1.1"
   viewBox="0 0 3.9511124 3.951109"
   height="15.999991pt"
   width="16.000004pt">
  <defs
     id="defs2" />
  <metadata
     id="metadata5">
    <rdf:RDF>
      <cc:Work
         rdf:about="">
        <dc:format>image/svg+xml</dc:format>
        <dc:type
           rdf:resource="http://purl.org/dc/dcmitype/StillImage" />
        <dc:title></dc:title>
      </cc:Work>
    </rdf:RDF>
  </metadata>
  <g
     transform="translate(-22.573274,-127.77442)"
     id="layer1">
    <path
       style="opacity:1;fill:none;fill-opacity:1;fill-rule:evenodd;stroke:#ffffff;stroke-width:0.49388894;stroke-linecap:butt;stroke-linejoin:miter;stroke-miterlimit:4;stroke-dasharray:none;stroke-dashoffset:22.40000153;stroke-opacity:1;paint-order:stroke fill markers"
       d="m 26.277441,129.74996 a 1.7286113,1.7286113 0 0 1 -1.728612,1.72862 1.7286113,1.7286113 0 0 1 -1.728611,-1.72862 1.7286113,1.7286113 0 0 1 1.728611,-1.7286 1.7286113,1.7286113 0 0 1 1.728612,1.7286 z"
       id="path6026" />
    <g
       aria-label="?"
       style="font-style:italic;font-variant:normal;font-weight:bold;font-stretch:normal;font-size:1.48166668px;line-height:1.25;font-family:Geometos;-inkscape-font-specification:'Geometos Bold Italic';text-align:start;letter-spacing:0px;word-spacing:0px;text-anchor:start;fill:#ffffff;fill-opacity:1;stroke:none;stroke-width:0.06869889"
       id="text6051"
       transform="matrix(2.0000002,0,0,2.0000002,-30.094398,-126.95955)">
      <path
         d="m 27.630539,127.90803 q 0.03852,0.0415 0.05927,0.0933 0.02222,0.0519 0.02222,0.10817 0,0.0726 -0.02222,0.12446 -0.02074,0.0504 -0.05334,0.0859 -0.0326,0.0341 -0.06964,0.0578 -0.03704,0.0222 -0.06964,0.04 -0.02519,0.0133 -0.04593,0.0267 -0.02074,0.0119 -0.03111,0.0252 -0.02519,0.0356 -0.03111,0.0711 -0.0059,0.0356 -0.003,0.0563 h -0.207433 q -0.003,-0.0474 0.01037,-0.11408 0.01482,-0.0667 0.06371,-0.13484 0.03111,-0.043 0.06964,-0.0667 0.04001,-0.0252 0.07853,-0.0459 0.02815,-0.0148 0.04741,-0.0267 0.02074,-0.0133 0.0326,-0.0267 0.01334,-0.0133 0.01778,-0.0296 0.0059,-0.0178 0.0059,-0.043 0,-0.009 -0.0044,-0.0267 -0.0044,-0.0178 -0.02222,-0.0341 -0.0163,-0.0178 -0.05038,-0.0296 -0.0326,-0.0133 -0.09186,-0.0133 -0.0489,0 -0.08445,0.0148 -0.03556,0.0133 -0.06075,0.037 -0.02371,0.0222 -0.03852,0.0504 -0.01482,0.0267 -0.02371,0.0533 l -0.197062,-0.0637 q 0.0089,-0.0267 0.0326,-0.0756 0.02371,-0.0504 0.06964,-0.0993 0.04741,-0.0504 0.120015,-0.0874 0.07408,-0.037 0.182245,-0.037 0.05927,0 0.10668,0.0104 0.04741,0.0104 0.08297,0.0267 0.03704,0.0148 0.06223,0.0341 0.02519,0.0193 0.04297,0.0385 z m -0.241512,1.00309 h -0.207433 v -0.22077 h 0.207433 z"
         style="font-style:normal;font-variant:normal;font-weight:normal;font-stretch:normal;font-family:Geometos;-inkscape-font-specification:Geometos;fill:#ffffff;stroke-width:0.06869889"
         id="path6054" />
    </g>
  </g>
</svg>
