<?xml version="1.0" encoding="UTF-8" standalone="no"?>
<svg
   xmlns:dc="http://purl.org/dc/elements/1.1/"
   xmlns:cc="http://creativecommons.org/ns#"
   xmlns:rdf="http://www.w3.org/1999/02/22-rdf-syntax-ns#"
   xmlns:svg="http://www.w3.org/2000/svg"
   xmlns="http://www.w3.org/2000/svg"
   id="svg8"
   version="1.1"
   viewBox="0 0 169.33333 42.333332"
   height="120pt"
   width="480pt">
  <defs
     id="defs2" />
  <metadata
     id="metadata5">
    <rdf:RDF>
      <cc:Work
         rdf:about="">
        <dc:format>image/svg+xml</dc:format>
        <dc:type
           rdf:resource="http://purl.org/dc/dcmitype/StillImage" />
        <dc:title></dc:title>
      </cc:Work>
    </rdf:RDF>
  </metadata>
  <g
     transform="translate(0,-254.66667)"
     id="layer1">
    <g
       transform="matrix(1.0306444,0,0,1.0306444,2.5752182,36.18393)"
       id="text4542"
       style="font-style:normal;font-weight:normal;font-size:10.58333302px;line-height:1.25;font-family:sans-serif;letter-spacing:0px;word-spacing:0px;fill:#ffffff;fill-opacity:1;stroke:none;stroke-width:0.26458332"
       aria-label="OPEN REDIRECT">
      <g
         style="fill:#ffffff"
         id="g4624">
        <path
           d="m 40.565136,219.10036 q -1.136882,0 -1.808675,0.84749 -0.666626,0.84749 -0.666626,2.30994 0,1.45727 0.666626,2.30477 0.671793,0.84749 1.808675,0.84749 1.136881,0 1.79834,-0.84749 0.666626,-0.8475 0.666626,-2.30477 0,-1.46245 -0.666626,-2.30994 -0.661459,-0.84749 -1.79834,-0.84749 z m 0,-0.8475 q 1.62264,0 2.594157,1.09038 0.971517,1.0852 0.971517,2.91455 0,1.82418 -0.971517,2.91455 -0.971517,1.0852 -2.594157,1.0852 -1.627808,0 -2.604492,-1.0852 -0.971517,-1.08521 -0.971517,-2.91455 0,-1.82935 0.971517,-2.91455 0.976684,-1.09038 2.604492,-1.09038 z"
           style="stroke-width:0.26458332;fill:#ffffff"
           id="path4574" />
        <path
           d="m 46.807648,219.25022 v 2.89905 h 1.312582 q 0.728637,0 1.126546,-0.37724 0.397908,-0.37724 0.397908,-1.07487 0,-0.69247 -0.397908,-1.0697 -0.397909,-0.37724 -1.126546,-0.37724 z m -1.043864,-0.85783 h 2.356446 q 1.297078,0 1.958536,0.58911 0.666626,0.58395 0.666626,1.71566 0,1.14205 -0.666626,1.72599 -0.661458,0.58395 -1.958536,0.58395 h -1.312582 v 3.10058 h -1.043864 z"
           style="stroke-width:0.26458332;fill:#ffffff"
           id="path4576" />
        <path
           d="m 52.145823,218.39239 h 4.878256 v 0.8785 h -3.834392 v 2.2841 h 3.674195 v 0.8785 h -3.674195 v 2.79569 h 3.927409 v 0.8785 h -4.971273 z"
           style="stroke-width:0.26458332;fill:#ffffff"
           id="path4578" />
        <path
           d="m 58.832754,218.39239 h 1.405599 l 3.42098,6.45439 v -6.45439 h 1.012858 v 7.71529 h -1.405599 l -3.42098,-6.45438 v 6.45438 h -1.012858 z"
           style="stroke-width:0.26458332;fill:#ffffff"
           id="path4580" />
        <path
           d="m 73.772411,222.49033 q 0.335897,0.11369 0.651123,0.48576 0.320394,0.37207 0.640788,1.02319 l 1.059367,2.1084 H 75.00231 l -0.98702,-1.97921 q -0.382405,-0.77514 -0.74414,-1.02836 -0.356568,-0.25321 -0.976685,-0.25321 h -1.136881 v 3.26078 H 70.11372 v -7.71529 h 2.356445 q 1.322917,0 1.97404,0.55294 0.651123,0.55294 0.651123,1.66915 0,0.72863 -0.341065,1.20923 -0.335896,0.48059 -0.981852,0.66662 z m -2.614827,-3.24011 v 2.73885 h 1.312581 q 0.754476,0 1.136882,-0.34623 0.387573,-0.3514 0.387573,-1.02836 0,-0.67696 -0.387573,-1.01803 -0.382406,-0.34623 -1.136882,-0.34623 z"
           style="stroke-width:0.26458332;fill:#ffffff"
           id="path4582" />
        <path
           d="m 77.467274,218.39239 h 4.878255 v 0.8785 h -3.834391 v 2.2841 h 3.674194 v 0.8785 h -3.674194 v 2.79569 h 3.927408 v 0.8785 h -4.971272 z"
           style="stroke-width:0.26458332;fill:#ffffff"
           id="path4584" />
        <path
           d="m 85.198069,219.25022 v 5.99963 h 1.260905 q 1.596802,0 2.335775,-0.72347 0.74414,-0.72347 0.74414,-2.2841 0,-1.55029 -0.74414,-2.26859 -0.738973,-0.72347 -2.335775,-0.72347 z m -1.043864,-0.85783 h 2.144572 q 2.242757,0 3.291789,0.93534 1.049031,0.93018 1.049031,2.91455 0,1.99471 -1.054199,2.93006 -1.054199,0.93534 -3.286621,0.93534 h -2.144572 z"
           style="stroke-width:0.26458332;fill:#ffffff"
           id="path4586" />
        <path
           d="m 92.303577,218.39239 h 1.043864 v 7.71529 h -1.043864 z"
           style="stroke-width:0.26458332;fill:#ffffff"
           id="path4588" />
        <path
           d="m 99.083526,222.49033 q 0.335897,0.11369 0.651123,0.48576 0.320391,0.37207 0.640791,1.02319 l 1.05936,2.1084 h -1.12137 l -0.987024,-1.97921 Q 98.944,223.35333 98.582265,223.10011 98.225698,222.8469 97.605581,222.8469 h -1.136882 v 3.26078 h -1.043864 v -7.71529 h 2.356445 q 1.322917,0 1.97404,0.55294 0.65112,0.55294 0.65112,1.66915 0,0.72863 -0.34106,1.20923 -0.335898,0.48059 -0.981854,0.66662 z m -2.614827,-3.24011 v 2.73885 h 1.312581 q 0.754476,0 1.136882,-0.34623 0.387573,-0.3514 0.387573,-1.02836 0,-0.67696 -0.387573,-1.01803 -0.382406,-0.34623 -1.136882,-0.34623 z"
           style="stroke-width:0.26458332;fill:#ffffff"
           id="path4590" />
        <path
           d="m 102.77839,218.39239 h 4.87826 v 0.8785 h -3.83439 v 2.2841 h 3.67419 v 0.8785 h -3.67419 v 2.79569 h 3.92741 v 0.8785 h -4.97128 z"
           style="stroke-width:0.26458332;fill:#ffffff"
           id="path4592" />
        <path
           d="m 115.24275,218.98667 v 1.10071 q -0.5271,-0.49093 -1.12655,-0.73381 -0.59428,-0.24288 -1.26607,-0.24288 -1.32292,0 -2.02572,0.81132 -0.7028,0.80615 -0.7028,2.33578 0,1.52445 0.7028,2.33577 0.7028,0.80615 2.02572,0.80615 0.67179,0 1.26607,-0.24288 0.59945,-0.24287 1.12655,-0.7338 v 1.09037 q -0.54777,0.37207 -1.16272,0.55811 -0.60979,0.18603 -1.29191,0.18603 -1.75184,0 -2.75953,-1.0697 -1.00769,-1.07487 -1.00769,-2.93005 0,-1.86035 1.00769,-2.93006 1.00769,-1.07487 2.75953,-1.07487 0.69246,0 1.30224,0.18604 0.61495,0.18087 1.15239,0.54777 z"
           style="stroke-width:0.26458332;fill:#ffffff"
           id="path4594" />
        <path
           d="m 115.78535,218.39239 h 6.52673 v 0.8785 h -2.73885 v 6.83679 h -1.04903 v -6.83679 h -2.73885 z"
           style="stroke-width:0.26458332;fill:#ffffff"
           id="path4596" />
      </g>
    </g>
    <g
       style="fill:#ffffff;opacity:0.5"
       transform="matrix(0.96722497,0,0,0.96722497,5.7979084,3.2758393)"
       id="g4632">
      <path
         id="path4552"
         style="font-style:normal;font-weight:normal;font-size:22.57777786px;line-height:1.25;font-family:sans-serif;letter-spacing:0px;word-spacing:0px;fill:#ffffff;fill-opacity:1;stroke:none;stroke-width:0.27606511"
         d="m 36.082552,279.49287 h 9.869329 v 1.95546 H 38.4061 v 5.0612 h 6.809607 v 1.95546 H 38.4061 v 8.20144 h -2.323548 z" />
      <path
         id="path4554"
         style="font-style:normal;font-weight:normal;font-size:22.57777786px;line-height:1.25;font-family:sans-serif;letter-spacing:0px;word-spacing:0px;fill:#ffffff;fill-opacity:1;stroke:none;stroke-width:0.27606511"
         d="m 49.368187,279.49287 h 2.335051 v 10.43296 q 0,2.76066 1.000736,3.97994 1.000736,1.20779 3.243765,1.20779 2.231527,0 3.232263,-1.20779 1.000736,-1.21928 1.000736,-3.97994 v -10.43296 h 2.335051 v 10.72053 q 0,3.35879 -1.667893,5.0727 Q 59.191505,297 55.947739,297 q -3.255267,0 -4.923161,-1.7139 -1.656391,-1.71391 -1.656391,-5.0727 z" />
      <path
         id="path4556"
         style="font-style:normal;font-weight:normal;font-size:22.57777786px;line-height:1.25;font-family:sans-serif;letter-spacing:0px;word-spacing:0px;fill:#ffffff;fill-opacity:1;stroke:none;stroke-width:0.27606511"
         d="m 65.471987,279.49287 h 13.492685 v 1.77142 l -10.858563,13.44667 h 11.123125 v 1.95547 H 65.207425 V 294.895 L 76.065988,281.44833 H 65.471987 Z" />
      <path
         id="path4558"
         style="font-style:normal;font-weight:normal;font-size:22.57777786px;line-height:1.25;font-family:sans-serif;letter-spacing:0px;word-spacing:0px;fill:#ffffff;fill-opacity:1;stroke:none;stroke-width:0.27606511"
         d="m 81.610294,279.49287 h 13.492683 v 1.77142 l -10.858562,13.44667 h 11.123124 v 1.95547 H 81.345731 V 294.895 L 92.204293,281.44833 H 81.610294 Z" />
      <path
         id="path4560"
         style="font-style:normal;font-weight:normal;font-size:22.57777786px;line-height:1.25;font-family:sans-serif;letter-spacing:0px;word-spacing:0px;fill:#ffffff;fill-opacity:1;stroke:none;stroke-width:0.27606511"
         d="M 98.737836,279.49287 H 109.5964 v 1.95546 h -8.53502 v 5.0842 h 8.17843 v 1.95547 h -8.17843 v 6.22296 h 8.74206 v 1.95547 H 98.737836 Z" />
      <path
         id="path4562"
         style="font-style:normal;font-weight:normal;font-size:22.57777786px;line-height:1.25;font-family:sans-serif;letter-spacing:0px;word-spacing:0px;fill:#ffffff;fill-opacity:1;stroke:none;stroke-width:0.27606511"
         d="m 121.76627,288.61452 q 0.74767,0.25307 1.44934,1.08126 0.71317,0.8282 1.42634,2.27754 L 127,296.66643 h -2.49608 l -2.19703,-4.40554 q -0.8512,-1.72542 -1.65639,-2.28905 -0.79368,-0.56363 -2.17401,-0.56363 h -2.5306 v 7.25822 h -2.32355 v -17.17356 h 5.24525 q 2.94469,0 4.39403,1.23079 1.44934,1.23079 1.44934,3.71538 0,1.62188 -0.75918,2.69164 -0.74767,1.06975 -2.18551,1.48384 z m -5.82038,-7.2122 v 6.09644 h 2.9217 q 1.67939,0 2.53059,-0.77068 0.86271,-0.78219 0.86271,-2.28904 0,-1.50685 -0.86271,-2.26604 -0.8512,-0.77068 -2.53059,-0.77068 z" />
    </g>
  </g>
</svg>
