<?xml version="1.0" encoding="UTF-8" standalone="no"?>
<svg
   xmlns:dc="http://purl.org/dc/elements/1.1/"
   xmlns:cc="http://creativecommons.org/ns#"
   xmlns:rdf="http://www.w3.org/1999/02/22-rdf-syntax-ns#"
   xmlns:svg="http://www.w3.org/2000/svg"
   xmlns="http://www.w3.org/2000/svg"
   width="480pt"
   height="480pt"
   viewBox="0 0 169.33333 169.33333"
   version="1.1"
   id="svg8">
  <defs
     id="defs2" />
  <metadata
     id="metadata5">
    <rdf:RDF>
      <cc:Work
         rdf:about="">
        <dc:format>image/svg+xml</dc:format>
        <dc:type
           rdf:resource="http://purl.org/dc/dcmitype/StillImage" />
        <dc:title></dc:title>
      </cc:Work>
    </rdf:RDF>
  </metadata>
  <g
     style="fill:#ffffff"
     id="layer1"
     transform="translate(3.1265472e-6,-127.66667)">
    <path
       style="fill:#ffffff;stroke-width:4.58028555"
       d="m 83.493604,230.12775 c 1.78601,1.7864 1.78601,4.7177 0,6.504 -8.93177,8.93156 -23.45115,8.93156 -32.38255,0 v 0 l -16.21438,-16.21421 c -8.93159,-8.93156 -8.93158,-23.45106 -10e-6,-32.38263 8.93161,-8.93155 23.45118,-8.93155 32.38257,0 l 6.8246,6.82463 c -3.7556,-0.046 -7.5116,0.5496 -11.12999,1.83221 l -2.1528,-2.15275 c -5.35878,-5.40475 -14.06139,-5.40474 -19.42037,0 -5.4048,5.35894 -5.4048,14.06146 0,19.42042 l 16.16837,16.16841 c 5.35903,5.40471 14.06158,5.40474 19.42039,-10e-6 1.786,-1.878 4.71779,-1.87799 6.50418,0 z"
       id="path934" />
    <g
       style="fill:#ffffff"
       id="g5235"
       transform="rotate(135,133.94324,214.01946)">
      <path
         id="path5225"
         d="m 169.33333,223.728 c -1.2e-4,-12.63103 -10.26731,-22.89822 -22.89834,-22.89835 h -4e-5 c -12.63113,3e-5 -22.8978,10.26722 -22.89783,22.89835 v 9.65109 c 2.62322,-2.68828 5.70015,-4.92297 9.13329,-6.54224 l 0.0326,-3.07682 c -0.0325,-7.61095 6.12087,-13.76432 13.73198,-13.73197 7.6111,-0.0324 13.76489,6.12085 13.73249,13.73197 -5e-5,8.16195 3e-4,16.32389 5.2e-4,24.48584 0,12.63116 10.26654,22.89768 22.89783,22.89783 2.52599,-2.1e-4 4.59854,-2.07327 4.59868,-4.5992 0.0648,-2.59112 -2.00836,-4.6643 -4.5992,-4.5992 -7.61096,0.0325 -13.76438,-6.12088 -13.73198,-13.73198 0,-8.16177 0,-16.32355 0,-24.48532 z"
         style="fill:#ffffff;stroke-width:4.58028555" />
    </g>
  </g>
</svg>
